ModelForces
version=1
nRows=4
nColumns=206
inDegrees=no

This file contains the forces exerted on a model during a simulation.

A force is a generalized force, meaning that it can be either a force (N) or a torque (Nm).

Units are S.I. units (second, meters, Newtons, ...)
Angles are in degrees.

endheader
time	glut_med1_r	glut_med2_r	glut_med3_r	glut_min1_r	glut_min2_r	glut_min3_r	semimem_r	semiten_r	bifemlh_r	bifemsh_r	sar_r	add_long_r	add_brev_r	add_mag1_r	add_mag2_r	add_mag3_r	tfl_r	pect_r	grac_r	glut_max1_r	glut_max2_r	glut_max3_r	iliacus_r	psoas_r	quad_fem_r	gem_r	peri_r	rect_fem_r	vas_med_r	vas_int_r	vas_lat_r	med_gas_r	lat_gas_r	soleus_r	tib_post_r	flex_dig_r	flex_hal_r	tib_ant_r	per_brev_r	per_long_r	per_tert_r	ext_dig_r	ext_hal_r	glut_med1_l	glut_med2_l	glut_med3_l	glut_min1_l	glut_min2_l	glut_min3_l	semimem_l	semiten_l	bifemlh_l	bifemsh_l	sar_l	add_long_l	add_brev_l	add_mag1_l	add_mag2_l	add_mag3_l	tfl_l	pect_l	grac_l	glut_max1_l	glut_max2_l	glut_max3_l	iliacus_l	psoas_l	quad_fem_l	gem_l	peri_l	rect_fem_l	vas_med_l	vas_int_l	vas_lat_l	med_gas_l	lat_gas_l	soleus_l	tib_post_l	flex_dig_l	flex_hal_l	tib_ant_l	per_brev_l	per_long_l	per_tert_l	ext_dig_l	ext_hal_l	ercspn_r	ercspn_l	intobl_r	intobl_l	extobl_r	extobl_l	femur_lat_meniscii_l.femur_lat_l.force.X	femur_lat_meniscii_l.femur_lat_l.force.Y	femur_lat_meniscii_l.femur_lat_l.force.Z	femur_lat_meniscii_l.femur_lat_l.torque.X	femur_lat_meniscii_l.femur_lat_l.torque.Y	femur_lat_meniscii_l.femur_lat_l.torque.Z	femur_lat_meniscii_l.meniscus_lat_l.force.X	femur_lat_meniscii_l.meniscus_lat_l.force.Y	femur_lat_meniscii_l.meniscus_lat_l.force.Z	femur_lat_meniscii_l.meniscus_lat_l.torque.X	femur_lat_meniscii_l.meniscus_lat_l.torque.Y	femur_lat_meniscii_l.meniscus_lat_l.torque.Z	femur_med_meniscii_l.femur_med_l.force.X	femur_med_meniscii_l.femur_med_l.force.Y	femur_med_meniscii_l.femur_med_l.force.Z	femur_med_meniscii_l.femur_med_l.torque.X	femur_med_meniscii_l.femur_med_l.torque.Y	femur_med_meniscii_l.femur_med_l.torque.Z	femur_med_meniscii_l.meniscus_med_l.force.X	femur_med_meniscii_l.meniscus_med_l.force.Y	femur_med_meniscii_l.meniscus_med_l.force.Z	femur_med_meniscii_l.meniscus_med_l.torque.X	femur_med_meniscii_l.meniscus_med_l.torque.Y	femur_med_meniscii_l.meniscus_med_l.torque.Z	femur_lat_meniscii_r.femur_lat_r.force.X	femur_lat_meniscii_r.femur_lat_r.force.Y	femur_lat_meniscii_r.femur_lat_r.force.Z	femur_lat_meniscii_r.femur_lat_r.torque.X	femur_lat_meniscii_r.femur_lat_r.torque.Y	femur_lat_meniscii_r.femur_lat_r.torque.Z	femur_lat_meniscii_r.meniscus_lat_r.force.X	femur_lat_meniscii_r.meniscus_lat_r.force.Y	femur_lat_meniscii_r.meniscus_lat_r.force.Z	femur_lat_meniscii_r.meniscus_lat_r.torque.X	femur_lat_meniscii_r.meniscus_lat_r.torque.Y	femur_lat_meniscii_r.meniscus_lat_r.torque.Z	femur_med_meniscii_r.femur_med_r.force.X	femur_med_meniscii_r.femur_med_r.force.Y	femur_med_meniscii_r.femur_med_r.force.Z	femur_med_meniscii_r.femur_med_r.torque.X	femur_med_meniscii_r.femur_med_r.torque.Y	femur_med_meniscii_r.femur_med_r.torque.Z	femur_med_meniscii_r.meniscus_med_r.force.X	femur_med_meniscii_r.meniscus_med_r.force.Y	femur_med_meniscii_r.meniscus_med_r.force.Z	femur_med_meniscii_r.meniscus_med_r.torque.X	femur_med_meniscii_r.meniscus_med_r.torque.Y	femur_med_meniscii_r.meniscus_med_r.torque.Z	femur_med_tibia_l.tibia_upper_l.force.X	femur_med_tibia_l.tibia_upper_l.force.Y	femur_med_tibia_l.tibia_upper_l.force.Z	femur_med_tibia_l.tibia_upper_l.torque.X	femur_med_tibia_l.tibia_upper_l.torque.Y	femur_med_tibia_l.tibia_upper_l.torque.Z	femur_med_tibia_l.femur_med_l.force.X	femur_med_tibia_l.femur_med_l.force.Y	femur_med_tibia_l.femur_med_l.force.Z	femur_med_tibia_l.femur_med_l.torque.X	femur_med_tibia_l.femur_med_l.torque.Y	femur_med_tibia_l.femur_med_l.torque.Z	femur_lat_tibia_l.tibia_upper_l.force.X	femur_lat_tibia_l.tibia_upper_l.force.Y	femur_lat_tibia_l.tibia_upper_l.force.Z	femur_lat_tibia_l.tibia_upper_l.torque.X	femur_lat_tibia_l.tibia_upper_l.torque.Y	femur_lat_tibia_l.tibia_upper_l.torque.Z	femur_lat_tibia_l.femur_lat_l.force.X	femur_lat_tibia_l.femur_lat_l.force.Y	femur_lat_tibia_l.femur_lat_l.force.Z	femur_lat_tibia_l.femur_lat_l.torque.X	femur_lat_tibia_l.femur_lat_l.torque.Y	femur_lat_tibia_l.femur_lat_l.torque.Z	femur_med_tibia_r.tibia_upper_r.force.X	femur_med_tibia_r.tibia_upper_r.force.Y	femur_med_tibia_r.tibia_upper_r.force.Z	femur_med_tibia_r.tibia_upper_r.torque.X	femur_med_tibia_r.tibia_upper_r.torque.Y	femur_med_tibia_r.tibia_upper_r.torque.Z	femur_med_tibia_r.femur_med_r.force.X	femur_med_tibia_r.femur_med_r.force.Y	femur_med_tibia_r.femur_med_r.force.Z	femur_med_tibia_r.femur_med_r.torque.X	femur_med_tibia_r.femur_med_r.torque.Y	femur_med_tibia_r.femur_med_r.torque.Z	femur_lat_tibia_r.tibia_upper_r.force.X	femur_lat_tibia_r.tibia_upper_r.force.Y	femur_lat_tibia_r.tibia_upper_r.force.Z	femur_lat_tibia_r.tibia_upper_r.torque.X	femur_lat_tibia_r.tibia_upper_r.torque.Y	femur_lat_tibia_r.tibia_upper_r.torque.Z	femur_lat_tibia_r.femur_lat_r.force.X	femur_lat_tibia_r.femur_lat_r.force.Y	femur_lat_tibia_r.femur_lat_r.force.Z	femur_lat_tibia_r.femur_lat_r.torque.X	femur_lat_tibia_r.femur_lat_r.torque.Y	femur_lat_tibia_r.femur_lat_r.torque.Z	aACL_R	pACL_R	aPCL_R	pPCL_R	aMCL_R	mMCL_R	pMCL_R	aLCL_R	mLCL_R	pLCL_R	aPCL_L	pPCL_L	aMCL_L	aLCL_L	ground_prescribedForce_-60_fx	ground_prescribedForce_-60_fy	ground_prescribedForce_-60_fz
      0.35382244	      7.87802527	      5.89292725	      6.31096863	      2.76093691	      3.28933462	      3.33206614	      1.58320662	      4.02734709	      4.67664701	      6.13646795	      1.59679086	      5.84103451	      4.29844876	      3.03509796	      2.55375974	      4.16778243	      3.52636351	      2.32515325	      1.57731545	      3.80257141	      5.77931843	      4.31722630	     23.05975046	     13.43082571	      3.76888983	      2.92101489	      4.35016297	     56.96881193	     15.10848407	     15.88579160	     21.43433277	      0.00000000	      0.57951131	     13.35534172	     12.57304892	      2.69570250	      1.99976615	     12.32971401	      4.06350003	      9.40721720	      8.57166567	      7.04317365	      2.23360999	      7.87802527	      5.89292725	      6.31096863	      2.76093691	      3.28933462	      3.33206614	      9.22424389	      4.26005841	      8.08219479	      7.49916961	      1.57777170	      5.84103451	      4.29844876	      3.03509796	      2.55375974	      4.16778243	      4.20861074	      2.32515325	      1.61927252	      3.80257141	      5.77931843	      4.31722630	     23.05975046	     13.43082571	      3.76888983	      2.92101489	      4.35016297	     11.21094130	      6.86326931	      7.87882598	      8.47015349	     15.06023152	      6.99352551	     33.06117949	     43.13919426	      2.98010998	      3.11932538	      8.86139903	      4.57809550	     13.01889722	      2.07782505	      5.55081735	      1.75771543	     25.96811269	     25.96811269	      9.37761849	      9.37761849	     27.14382438	     27.14382438	      2.76307435	     50.99597937	     -9.56042239	      5.21997485	     -0.02578839	      1.48581788	     -2.76307435	    -50.99597937	      9.56042239	     -1.74637766	      0.02558040	     -0.48301696	     -3.31599387	     20.97615968	     -3.40468921	      0.94473225	     -0.02138609	     -1.00501789	      3.31599387	    -20.97615968	      3.40468921	      0.28075727	      0.00368718	     -0.29758878	    133.10854610	     54.39807899	     17.19613750	     -8.32852060	      3.30029193	     54.35017660	   -133.10854610	    -54.39807899	    -17.19613750	      1.87530137	     -4.40004550	     -0.91939245	    178.36454473	     29.60228067	    -11.86708870	      5.43151539	     -3.60639813	     72.53247902	   -178.36454473	    -29.60228067	     11.86708870	     -0.62878153	      2.95932168	     -1.96062102	      0.00000000	      0.00000000	      0.00000000	      0.00000000	      0.00000000	      0.00000000	      0.00000000	      0.00000000	      0.00000000	      0.00000000	      0.00000000	      0.00000000	      0.00000000	      0.00000000	      0.00000000	      0.00000000	      0.00000000	      0.00000000	      0.00000000	      0.00000000	      0.00000000	      0.00000000	      0.00000000	      0.00000000	   -158.09765118	    -67.98643537	      8.41052480	     -1.04473155	      2.31234452	     -0.99911384	    158.09765118	     67.98643537	     -8.41052480	      4.69314138	     -2.93581240	     64.54064989	      0.00000000	      0.00000000	      0.00000000	      0.00000000	      0.00000000	      0.00000000	      0.00000000	      0.00000000	      0.00000000	      0.00000000	      0.00000000	      0.00000000	     60.04842465	     11.83036638	    335.54727840	     60.00995355	      6.07258589	      1.91704553	      1.26707305	      0.00000000	      0.00000000	      0.00000000	      0.00000000	      0.00000000	      0.00000001	      0.00000000	     55.00000000	    -95.26270000	      0.00000000
      0.35584214	      7.86945937	      5.88703860	      6.30458379	      2.75829508	      3.28647384	      3.32845079	      1.58524895	      4.01900906	      4.64782872	      6.10554978	      1.59901340	      5.83512932	      4.29437301	      3.03208659	      2.55116535	      4.16310094	      3.50628756	      2.32291411	      1.57684702	      3.79877315	      5.77352834	      4.31282224	     23.04905943	     13.41877470	      3.76520484	      2.91928235	      4.34355954	     56.98106469	     15.12444358	     15.89191720	     21.42288297	      0.00000000	      0.56910132	     13.26764855	     12.58133800	      2.69536902	      2.05424002	     12.31913418	      4.06439148	      9.38144070	      8.59797176	      6.95989346	      2.19199139	      7.86945937	      5.88703860	      6.30458379	      2.75829508	      3.28647384	      3.32845079	      9.21187204	      4.25547019	      8.07185761	      7.49183257	      1.57626890	      5.83512932	      4.29437301	      3.03208659	      2.55116535	      4.16310094	      4.20571195	      2.32291411	      1.61770335	      3.79877315	      5.77352834	      4.31282224	     23.04905943	     13.41877470	      3.76520484	      2.91928235	      4.34355954	     11.19685650	      6.85624927	      7.87061236	      8.46136526	     15.03339018	      6.98104756	     33.01101073	     43.11918074	      2.97473670	      3.11447201	      8.85077546	      4.57180906	     13.00456519	      2.07595762	      5.54315870	      1.75546776	     25.94320825	     25.94320825	      9.36782728	      9.36782728	     27.13502810	     27.13502810	      2.76307435	     50.99597937	     -9.56042239	      5.21997485	     -0.02578839	      1.48581788	     -2.76307435	    -50.99597937	      9.56042239	     -1.74637766	      0.02558040	     -0.48301696	     -3.31599387	     20.97615968	     -3.40468921	      0.94473225	     -0.02138609	     -1.00501789	      3.31599387	    -20.97615968	      3.40468921	      0.28075727	      0.00368718	     -0.29758878	    133.49403971	     54.98843197	     18.49309152	     -8.87793957	      3.32419110	     54.50423425	   -133.49403971	    -54.98843197	    -18.49309152	      1.91987287	     -4.45740695	     -0.90723597	    178.09173240	     30.01728077	    -10.38569418	      4.83452915	     -3.58312706	     72.41731700	   -178.09173240	    -30.01728077	     10.38569418	     -0.60971590	      2.90154246	     -1.94104631	      0.00000000	      0.00000000	      0.00000000	      0.00000000	      0.00000000	      0.00000000	      0.00000000	      0.00000000	      0.00000000	      0.00000000	      0.00000000	      0.00000000	      0.00000000	      0.00000000	      0.00000000	      0.00000000	      0.00000000	      0.00000000	      0.00000000	      0.00000000	      0.00000000	      0.00000000	      0.00000000	      0.00000000	   -156.96661332	    -67.94144941	      7.41879859	     -1.02249693	      2.26224988	     -0.97573925	    156.96661332	     67.94144941	     -7.41879859	      4.28257943	     -2.90407237	     64.07460269	      0.00000000	      0.00000000	      0.00000000	      0.00000000	      0.00000000	      0.00000000	      0.00000000	      0.00000000	      0.00000000	      0.00000000	      0.00000000	      0.00000000	     59.90031211	     11.51125974	    335.06946921	     59.87610076	      6.28131848	      2.13399846	      1.51902645	      0.00000000	      0.00000000	      0.00000000	      0.00000000	      0.00000000	      0.00000001	      0.00000000	     55.00000000	    -95.26270000	      0.00000000
      0.35786183	      7.86111489	      5.88130183	      6.29836372	      2.75572130	      3.28368682	      3.32492888	      1.58214612	      4.00853026	      4.61786002	      6.06857164	      1.59687614	      5.82937651	      4.29040237	      3.02915290	      2.54863795	      4.15854054	      3.48539230	      2.32073265	      1.57469195	      3.79507289	      5.76788766	      4.30853188	     23.03864454	     13.40703571	      3.76161482	      2.91759468	      4.33712098	     56.98011293	     15.11628714	     15.87440958	     21.38302941	      0.00000000	      0.56083110	     13.17730316	     12.58154258	      2.69699627	      2.11047041	     12.31182949	      4.06493623	      9.35687173	      8.62018132	      6.87431975	      2.14828963	      7.86111489	      5.88130183	      6.29836372	      2.75572130	      3.28368682	      3.32492888	      9.19981717	      4.25100054	      8.06178638	      7.48468464	      1.57480480	      5.82937651	      4.29040237	      3.02915290	      2.54863795	      4.15854054	      4.20288821	      2.32073265	      1.61617460	      3.79507289	      5.76788766	      4.30853188	     23.03864454	     13.40703571	      3.76161482	      2.91759468	      4.33712098	     11.18313449	      6.84941060	      7.86261108	      8.45280426	     15.00718175	      6.96886381	     32.96209647	     43.09967611	      2.96946026	      3.10972207	      8.84042622	      4.56568301	     12.99058551	      2.07413850	      5.53573256	      1.75328961	     25.91894524	     25.91894524	      9.35828894	      9.35828894	     27.12645904	     27.12645904	      2.76307435	     50.99597937	     -9.56042239	      5.21997485	     -0.02578839	      1.48581788	     -2.76307435	    -50.99597937	      9.56042239	     -1.74637766	      0.02558040	     -0.48301696	     -3.31599387	     20.97615968	     -3.40468921	      0.94473225	     -0.02138609	     -1.00501789	      3.31599387	    -20.97615968	      3.40468921	      0.28075727	      0.00368718	     -0.29758878	    134.23348192	     55.35967509	     18.23037335	     -8.77814236	      3.33780509	     54.80654844	   -134.23348192	    -55.35967509	    -18.23037335	      1.92503923	     -4.46930515	     -0.90993580	    177.91000775	     30.06922207	    -10.72514522	      4.97430971	     -3.58235561	     72.34334611	   -177.91000775	    -30.06922207	     10.72514522	     -0.61604444	      2.90902588	     -1.93567410	      0.00000000	      0.00000000	      0.00000000	      0.00000000	      0.00000000	      0.00000000	      0.00000000	      0.00000000	      0.00000000	      0.00000000	      0.00000000	      0.00000000	      0.00000000	      0.00000000	      0.00000000	      0.00000000	      0.00000000	      0.00000000	      0.00000000	      0.00000000	      0.00000000	      0.00000000	      0.00000000	      0.00000000	   -155.74339057	    -67.44600628	      7.60802677	     -1.01935381	      2.25125002	     -0.96590361	    155.74339057	     67.44600628	     -7.60802677	      4.35132992	     -2.88286687	     63.57520268	      0.00000000	      0.00000000	      0.00000000	      0.00000000	      0.00000000	      0.00000000	      0.00000000	      0.00000000	      0.00000000	      0.00000000	      0.00000000	      0.00000000	     60.03731988	     11.56657219	    334.49291020	     59.41373579	      6.35580711	      2.19908993	      1.57104408	      0.00000000	      0.00000000	      0.00000000	      0.00000000	      0.00000000	      0.00000001	      0.00000000	     55.00000000	    -95.26270000	      0.00000000
      0.36113069	      7.84806395	      5.87232874	      6.28863484	      2.75169536	      3.27932748	      3.31942052	      1.58065788	      3.99358954	      4.57037263	      6.01660326	      1.59634333	      5.82037849	      4.28419156	      3.02456420	      2.54468487	      4.15140812	      3.45176040	      2.31732041	      1.57263574	      3.78928529	      5.75906501	      4.30182141	     23.02235501	     13.38867673	      3.75599940	      2.91495530	      4.32703922	     56.98864728	     15.11878958	     15.86236493	     21.33804453	      0.00000000	      0.54747950	     13.02801906	     12.56025134	      2.70217398	      2.20383017	     12.30084325	      4.06935550	      9.32370229	      8.65847765	      6.73171404	      2.07303991	      7.84806395	      5.87232874	      6.28863484	      2.75169536	      3.27932748	      3.31942052	      9.18095752	      4.24400987	      8.04603227	      7.47350405	      1.57251465	      5.82037849	      4.28419156	      3.02456420	      2.54468487	      4.15140812	      4.19847203	      2.31732041	      1.61378335	      3.78928529	      5.75906501	      4.30182141	     23.02235501	     13.38867673	      3.75599940	      2.91495530	      4.32703922	     11.16167042	      6.83871460	      7.85009695	      8.43941483	     14.96606747	      6.94975055	     32.88550849	     43.06915351	      2.96112215	      3.10224880	      8.82423923	      4.55609756	     12.96868431	      2.07129340	      5.52418534	      1.74990485	     25.88099281	     25.88099281	      9.34337033	      9.34337033	     27.11305657	     27.11305657	      2.76307435	     50.99597937	     -9.56042239	      5.21997485	     -0.02578839	      1.48581788	     -2.76307435	    -50.99597937	      9.56042239	     -1.74637766	      0.02558040	     -0.48301696	     -3.31599387	     20.97615968	     -3.40468921	      0.94473225	     -0.02138609	     -1.00501789	      3.31599387	    -20.97615968	      3.40468921	      0.28075727	      0.00368718	     -0.29758878	    135.37147894	     56.23988801	     18.74429777	     -9.01072461	      3.37035126	     55.26944488	   -135.37147894	    -56.23988801	    -18.74429777	      1.96119215	     -4.52132374	     -0.90431411	    177.45630980	     30.26229885	    -10.30863551	      4.80761165	     -3.56704982	     72.15719517	   -177.45630980	    -30.26229885	     10.30863551	     -0.61111351	      2.88465485	     -1.92052476	      0.00000000	      0.00000000	      0.00000000	      0.00000000	      0.00000000	      0.00000000	      0.00000000	      0.00000000	      0.00000000	      0.00000000	      0.00000000	      0.00000000	      0.00000000	      0.00000000	      0.00000000	      0.00000000	      0.00000000	      0.00000000	      0.00000000	      0.00000000	      0.00000000	      0.00000000	      0.00000000	      0.00000000	   -153.51269323	    -66.77369167	      7.18880177	     -1.00050497	      2.20477930	     -0.94043604	    153.51269323	     66.77369167	     -7.18880177	      4.16544072	     -2.83606320	     62.66207866	      0.00000000	      0.00000000	      0.00000000	      0.00000000	      0.00000000	      0.00000000	      0.00000000	      0.00000000	      0.00000000	      0.00000000	      0.00000000	      0.00000000	     60.06818449	     11.43032606	    333.58079995	     58.84106513	      6.54726473	      2.38128944	      1.75827677	      0.00000000	      0.00000000	      0.00000000	      0.00000000	      0.00000000	      0.00000001	      0.00000000	     55.00000000	    -95.26270000	      0.00000000
